<svg width="399" height="155" viewBox="0 0 399 155" fill="none" xmlns="http://www.w3.org/2000/svg">
<path d="M68.509 123.102L71.2001 119.878C73.0611 121.414 75.012 122.389 77.3779 122.389C79.2389 122.389 80.3665 121.649 80.3665 120.439V120.376C80.3665 119.221 79.654 118.633 76.195 117.747C72.0234 116.682 69.3323 115.527 69.3323 111.418V111.362C69.3323 107.606 72.3485 105.122 76.5754 105.122C79.5917 105.122 82.1652 106.07 84.2614 107.751L81.8954 111.182C80.0621 109.909 78.2565 109.141 76.5132 109.141C74.7698 109.141 73.8497 109.937 73.8497 110.947V111.002C73.8497 112.365 74.7352 112.808 78.3119 113.721C82.5111 114.814 84.8771 116.322 84.8771 119.934V119.996C84.8771 124.105 81.7432 126.416 77.2742 126.416C74.1403 126.416 70.9788 125.323 68.4883 123.102H68.509Z" fill="black"/>
<path d="M100.395 105.06C94.0092 105.06 89.3672 109.882 89.3672 115.769V115.831C89.3672 121.718 93.9538 126.478 100.339 126.478C106.724 126.478 111.366 121.656 111.366 115.776V115.714C111.366 109.826 106.78 105.067 100.395 105.067V105.06ZM106.607 115.824C106.607 119.373 104.061 122.272 100.395 122.272C96.728 122.272 94.1268 119.318 94.1268 115.762V115.7C94.1268 112.151 96.6726 109.252 100.339 109.252C104.006 109.252 106.607 112.213 106.607 115.762V115.824Z" fill="black"/>
<path d="M116.604 105.413H120.803L130.502 118.163V105.413H134.999V126.111H131.124L121.1 112.953V126.111H116.604V105.413Z" fill="black"/>
<path d="M140.795 115.824V115.762C140.795 109.875 145.382 105.053 151.649 105.053C155.378 105.053 157.626 106.056 159.785 107.889L156.914 111.348C155.316 110.02 153.898 109.245 151.504 109.245C148.19 109.245 145.561 112.172 145.561 115.693V115.755C145.561 119.539 148.163 122.32 151.829 122.32C153.483 122.32 154.963 121.905 156.118 121.075V118.114H151.539V114.178H160.532V123.171C158.401 124.977 155.475 126.45 151.691 126.45C145.243 126.45 140.809 121.926 140.809 115.804L140.795 115.824Z" fill="black"/>
<path d="M176.409 115.824V115.762C176.409 109.875 180.844 105.053 187.201 105.053C191.103 105.053 193.441 106.354 195.365 108.249L192.466 111.59C190.868 110.138 189.242 109.252 187.174 109.252C183.687 109.252 181.169 112.151 181.169 115.7V115.762C181.169 119.311 183.625 122.272 187.174 122.272C189.54 122.272 190.986 121.324 192.611 119.851L195.51 122.777C193.379 125.053 191.013 126.471 187.022 126.471C180.927 126.471 176.402 121.767 176.402 115.824H176.409Z" fill="black"/>
<path d="M210.452 105.06C204.06 105.06 199.418 109.882 199.418 115.769V115.831C199.418 121.718 204.005 126.478 210.39 126.478C216.775 126.478 221.417 121.656 221.417 115.776V115.714C221.417 109.826 216.838 105.067 210.445 105.067L210.452 105.06ZM216.665 115.824C216.665 119.373 214.119 122.272 210.452 122.272C206.786 122.272 204.184 119.318 204.184 115.762V115.7C204.184 112.151 206.73 109.252 210.397 109.252C214.063 109.252 216.665 112.213 216.665 115.762V115.824Z" fill="black"/>
<path d="M226.662 105.413H230.861L240.56 118.163V105.413H245.057V126.111H241.183L231.159 112.953V126.111H226.662V105.413Z" fill="black"/>
<path d="M256.181 109.612H249.879V105.413H267.036V109.612H260.733V126.111H256.181V109.612Z" fill="black"/>
<path d="M272.301 105.413H287.915V109.467H276.825V113.666H286.586V117.713H276.825V122.064H288.06V126.111H272.301V105.413Z" fill="black"/>
<path d="M292.445 123.102L295.137 119.878C296.998 121.414 298.948 122.389 301.321 122.389C303.182 122.389 304.31 121.649 304.31 120.439V120.376C304.31 119.221 303.597 118.633 300.138 117.747C295.967 116.682 293.276 115.527 293.276 111.418V111.362C293.276 107.606 296.292 105.122 300.519 105.122C303.535 105.122 306.109 106.07 308.205 107.751L305.839 111.182C304.005 109.909 302.2 109.141 300.457 109.141C298.713 109.141 297.793 109.937 297.793 110.947V111.002C297.793 112.365 298.679 112.808 302.255 113.721C306.454 114.814 308.82 116.322 308.82 119.934V119.996C308.82 124.105 305.687 126.416 301.218 126.416C298.084 126.416 294.922 125.323 292.432 123.102H292.445Z" fill="black"/>
<path d="M318.913 109.612H312.617V105.413H329.767V109.612H323.465V126.111H318.913V109.612Z" fill="black"/>
<path d="M39.2459 20.7015C15.1989 23.3373 7.1809 37.367 6.44067 39.2695C5.8734 40.7223 6.01867 41.0612 7.6029 41.0612C9.18713 41.0612 31.0273 38.6399 37.3504 38.9512C43.7841 39.2695 43.3621 46.3328 38.2981 47.8132C17.6271 53.6174 5.59668 68.3805 5.59668 75.9765C5.59668 81.7738 9.81667 84.5202 14.6662 84.5202C29.1179 84.5202 43.7357 69.5012 46.4614 66.2013C48.1771 64.119 49.2424 65.4265 49.2494 66.3535C49.277 78.5569 36.1605 92.9602 18.568 92.9602C6.01867 92.9602 0 83.358 0 75.3469C0 60.155 16.458 47.1837 16.458 47.1837C16.458 47.1837 8.11483 47.5019 5.27153 47.5019C2.96783 47.5019 1.36977 45.7655 1.29367 43.87C0.518851 24.119 20.8647 8.87172 39.2736 10.2069C46.5513 10.7327 47.3677 20.0789 39.2459 20.7084V20.7015Z" fill="black"/>
<path d="M60.4837 66.824C60.8435 70.449 63.3132 74.2677 66.6684 70.6012C75.1637 60.743 74.3267 33.576 74.1191 30.6427C73.9116 27.7026 75.482 26.8655 76.6373 28.4359C77.7926 30.0063 83.244 38.7161 83.244 52.0332C83.244 68.1868 73.6072 84.7347 66.0527 84.7347C48.8545 84.7347 50.4111 45.3228 55.5512 32.3169C58.2215 25.5649 65.3056 28.4912 65.3056 33.2647C65.3056 40.1827 59.4322 56.2325 60.4837 66.824Z" fill="black"/>
<path d="M103.569 55.7205C113.594 55.0841 126.143 47.2806 126.143 38.9513C126.143 32.7804 119.723 28.3321 111.387 28.3321C103.051 28.3321 93.8635 31.1477 90.3837 33.2508C85.8455 35.8866 89.2215 42.1128 93.4415 40.4248C93.4415 40.4248 91.8573 47.8063 91.4353 51.7081C88.0109 51.2861 87.3191 51.9156 87.5335 52.6559C87.748 53.3961 89.2215 54.0256 90.9095 56.1356C90.3837 60.7776 89.4498 81.4141 89.6574 83.2058C89.8718 85.0114 90.9579 85.3227 92.5076 83.4134C93.8774 81.7254 96.8175 77.6507 98.1873 62.2512C99.7715 63.6209 104.095 69.4113 109.367 76.1771C117.101 86.0906 119.654 86.8101 122.829 87.9239C124.545 88.5258 126.309 87.5434 125.05 85.7932C119.903 78.6538 113.441 64.3611 103.563 55.7067L103.569 55.7205ZM100.09 39.1588C100.09 39.1588 112.113 36.101 116.229 36.523C119.813 36.8897 120.553 38.4186 118.734 41.255C114.438 47.9239 104.566 50.2276 99.2457 50.1308C99.6677 44.7555 100.09 39.1588 100.09 39.1588Z" fill="black"/>
<path d="M147.775 36.018C147.775 36.018 150.508 32.31 148.862 30.2207C147.014 27.8617 141.1 27.1284 135.558 33.3407C128.26 41.5178 123.147 58.7645 128.675 73.2369C133.96 87.073 148.758 88.2421 155.614 77.7544C161.729 68.3943 160.124 52.8011 147.782 36.018H147.775ZM143.915 75.596C139.086 75.596 136.402 69.3559 136.402 62.5832C136.402 50.6427 144.988 39.7814 144.988 39.7814C147.347 42.7908 153.04 51.293 153.04 59.8921C153.04 68.4912 148.744 75.596 143.915 75.596Z" fill="black"/>
<path d="M255.71 28.5535C258.864 29.5773 261.604 34.9803 260.843 43.8077C259.598 58.2179 249.892 76.1287 248.48 82.9291C248.01 85.2051 246.239 85.0944 245.429 83.8422C244.655 82.6454 243.029 78.9789 243.472 69.9094C244.073 57.4708 253.503 40.4248 253.219 29.7019C253.178 28.2698 254.298 28.0969 255.71 28.5535Z" fill="black"/>
<path d="M287.659 38.7368C276.583 38.7368 273.138 42.1474 273.138 44.7486C273.138 51.7081 285.161 51.2169 290.717 51.8534C293.933 52.22 298.098 54.3162 298.098 59.8713C298.098 66.0076 290.412 70.9402 282.256 75.43C273.684 80.148 264.85 84.7693 260.817 87.5503C258.742 88.9824 257.399 87.1352 258.389 85.1982C261.253 79.6084 266.621 74.3438 273.961 69.3629C284.712 62.0713 291.616 58.7506 288.731 57.6922C287.133 57.1111 282.754 56.779 278.25 55.935C270.516 54.669 265.666 50.1654 265.666 43.6278C265.666 33.0087 275.179 28.3321 288.364 28.3321C295.324 28.3321 296.182 38.7368 287.638 38.7368H287.659Z" fill="black"/>
<path d="M308.523 28.3736C312.031 28.6711 318.015 33.3684 317.351 45.4888C316.825 55.008 308.724 75.4853 308.018 83.0328C307.88 84.5686 306.358 85.4196 305.196 84.0014C302.926 81.2272 301.965 78.211 301.965 69.6465C301.965 61.082 309.312 38.55 304.995 30.2691C304.013 28.5673 306.579 28.2145 308.523 28.3736Z" fill="black"/>
<path d="M307.887 2.99833C307.154 0.106601 310.26 -0.218544 312.46 1.57322C313.871 2.72853 320.907 9.68805 320.907 18.1004C320.907 27.751 307.742 26.4781 307.963 18.5846C308.039 15.8243 309.575 9.07235 307.887 3.00525V2.99833Z" fill="black"/>
<path d="M345.181 37.5953C347.478 34.925 349.048 33.3615 348.695 31.5144C348.342 29.6604 342.068 28.3736 339.273 30.954C331.013 24.3957 332.701 32.0747 333.898 33.7904C324.136 40.6531 317.536 58.716 322.85 72.8149C328.045 86.5956 343.707 88.2975 351.919 78.6122C359.19 70.0339 357.896 54.2747 345.181 37.6022M338.83 77.2771C333.496 77.0073 330.445 70.6911 330.819 64.2366C331.476 52.8634 340.982 41.3795 340.982 41.3795C343.202 43.4065 349.878 54.3853 349.512 62.7838C349.159 70.9886 344.164 77.5469 338.83 77.2771Z" fill="black"/>
<path d="M395.634 84.9076C387.214 77.6437 388.01 56.8412 387.588 48.6088C387.173 40.5216 377.017 41.1443 374.527 44.5341C372.728 54.9042 372.119 73.5275 366.862 83.7592C366.101 85.1428 364.164 84.9076 363.97 83.3303C363.762 81.67 361.818 77.3393 361.818 65.1013C361.818 52.8634 363.243 35.2224 373.129 29.0723C374.928 28.1038 376.166 28.1038 376.236 29.1415C376.298 30.0478 375.973 32.9187 375.903 34.7866C375.903 34.7866 379.639 31.9502 385.928 31.9502C390.77 31.9502 398.927 36.9934 398.927 46.8101C398.927 59.6638 396.561 73.3061 398.283 83.9114C398.532 85.4334 396.775 85.8831 395.641 84.9007L395.634 84.9076Z" fill="black"/>
<path d="M107.481 154L114.499 138.49H116.127L123.145 154H121.275L119.471 149.93H111.089L109.263 154H107.481ZM111.771 148.368H118.789L115.291 140.514L111.771 148.368ZM133.763 154.242C129.957 154.242 127.361 151.91 127.361 147.554V138.6H129.099V147.444C129.099 150.788 130.837 152.636 133.807 152.636C136.645 152.636 138.449 150.92 138.449 147.554V138.6H140.187V147.422C140.187 151.932 137.613 154.242 133.763 154.242ZM151.556 154.22C149.092 154.22 147.112 153.428 145.264 151.756L146.342 150.48C147.948 151.954 149.488 152.658 151.622 152.658C153.712 152.658 155.054 151.558 155.054 150.04V149.996C155.054 148.566 154.284 147.774 151.05 147.07C147.508 146.3 145.88 145.156 145.88 142.626V142.582C145.88 140.184 148.014 138.38 150.94 138.38C153.206 138.38 154.768 139.018 156.352 140.272L155.34 141.614C153.91 140.448 152.48 139.942 150.896 139.942C148.872 139.942 147.618 141.02 147.618 142.428V142.472C147.618 143.924 148.388 144.76 151.798 145.464C155.23 146.234 156.814 147.466 156.814 149.82V149.864C156.814 152.504 154.614 154.22 151.556 154.22ZM166.076 154V140.206H160.906V138.6H173.006V140.206H167.836V154H166.076ZM178.252 154V138.6H184.874C186.788 138.6 188.284 139.172 189.252 140.14C190.022 140.91 190.44 141.944 190.44 143.176V143.22C190.44 145.772 188.68 147.29 186.26 147.708L190.99 154H188.856L184.39 148.016H179.99V154H178.252ZM179.99 146.454H184.72C187.008 146.454 188.68 145.266 188.68 143.286V143.242C188.68 141.328 187.228 140.206 184.742 140.206H179.99V146.454ZM196.284 154V138.6H198.022V154H196.284ZM203.193 154L210.211 138.49H211.839L218.857 154H216.987L215.183 149.93H206.801L204.975 154H203.193ZM207.483 148.368H214.501L211.003 140.514L207.483 148.368ZM231.327 154V152.658L236.915 147.73C239.269 145.618 240.127 144.43 240.127 142.89C240.127 141.086 238.697 139.942 237.025 139.942C235.265 139.942 234.121 140.844 232.889 142.582L231.613 141.658C233.043 139.59 234.429 138.38 237.157 138.38C239.929 138.38 241.931 140.228 241.931 142.736V142.78C241.931 145.024 240.743 146.41 238.037 148.764L233.923 152.416H242.085V154H231.327ZM253.275 154.264C249.293 154.264 246.785 150.656 246.785 146.344V146.3C246.785 141.988 249.359 138.336 253.319 138.336C257.279 138.336 259.787 141.944 259.787 146.256V146.3C259.787 150.612 257.235 154.264 253.275 154.264ZM253.319 152.68C256.223 152.68 257.983 149.71 257.983 146.344V146.3C257.983 142.956 256.157 139.92 253.275 139.92C250.393 139.92 248.589 142.868 248.589 146.256V146.3C248.589 149.644 250.415 152.68 253.319 152.68ZM263.969 154V152.658L269.557 147.73C271.911 145.618 272.769 144.43 272.769 142.89C272.769 141.086 271.339 139.942 269.667 139.942C267.907 139.942 266.763 140.844 265.531 142.582L264.255 141.658C265.685 139.59 267.071 138.38 269.799 138.38C272.571 138.38 274.573 140.228 274.573 142.736V142.78C274.573 145.024 273.385 146.41 270.679 148.764L266.565 152.416H274.727V154H263.969ZM285.389 154.264C283.695 154.264 282.309 153.67 281.341 152.702C280.109 151.47 279.405 149.886 279.405 146.74V146.696C279.405 142.01 281.759 138.336 285.807 138.336C287.655 138.336 289.019 138.974 290.361 140.096L289.349 141.438C288.205 140.47 287.127 139.92 285.719 139.92C282.903 139.92 281.209 142.758 281.209 146.718C282.023 145.486 283.365 144.364 285.587 144.364C288.469 144.364 290.911 146.19 290.911 149.094V149.138C290.911 152.108 288.491 154.264 285.389 154.264ZM285.411 152.724C287.677 152.724 289.129 151.162 289.129 149.204V149.16C289.129 147.29 287.589 145.86 285.367 145.86C283.057 145.86 281.517 147.532 281.517 149.226V149.27C281.517 151.228 283.123 152.724 285.411 152.724Z" fill="black"/>
<g clip-path="url(#clip0_3052_632)">
<path d="M228.023 6.14562C224.334 6.14562 219.386 5.57535 215.81 7.61021C208.201 11.9403 202.672 20.6026 201.654 23.5092C200.497 26.8084 199.199 25.6261 198.758 23.5127C198.318 21.3993 194.488 13.8471 186.5 13.8471C182.487 13.8471 174.411 17.3671 170.316 26.7072C169.329 28.96 168.779 32.3717 168.336 35.2075L238.849 27.7352C238.863 27.4805 238.594 6.14562 228.023 6.14562Z" fill="#C8102E"/>
<path d="M200.465 85.7408C197.041 87.9518 224.182 57.0787 225.856 55.7896L174.486 61.4689C174.484 63.2937 196.684 82.3185 200.465 85.7408Z" fill="#C8102E"/>
<path d="M170.069 34.3365C170.029 34.5926 169.197 33.4585 168.964 34.3365C168.229 37.1079 168.59 44.8419 169.462 49.293C170.16 52.8512 173.29 59.5713 175.267 62.0201C176.588 63.6531 175.81 60.6779 176.656 61.7958L223.452 56.8785C223.79 56.4794 224.456 57.0532 224.795 56.64C231.441 48.5282 237.628 36.8327 238.86 27.2166C238.949 26.5225 238.035 27.893 238.077 27.1904L170.069 34.3365Z" fill="#F9F9F9"/>
<path d="M227.982 0C218.487 0 207.258 7.01164 200.466 18.6647C198.634 14.4549 192.096 9.87007 184.334 9.87007C178.08 9.87007 160.512 17.6883 160.512 42.933C160.512 75.5148 193.476 82.2081 200.141 92.3329C200.6 93.0333 202.072 93.5569 202.638 91.8942C207.952 76.2012 249.187 58.4704 249.187 26.5395C249.187 8.63188 237.491 0 227.996 0H227.982ZM238.121 26.4334C238.114 26.6881 238.093 26.9428 238.078 27.1904C237.427 38.1147 230.918 48.0768 223.454 56.8785C213.916 68.1211 202.829 77.4818 200.452 84.5429C197.919 79.4204 184.978 72.7908 176.651 61.7958C172.441 56.2417 169.412 49.5767 169.504 41.426C169.533 38.8364 169.731 36.4874 170.07 34.3365C172.349 19.7401 180.959 14.936 185.947 14.936C193.928 14.936 197.226 21.0278 197.77 23.7306C198.308 26.4263 201.329 28.5843 202.299 24.1622C203.268 19.7401 212.664 6.25458 224.204 6.25458C234.774 6.25458 238.439 17.1576 238.121 26.4334Z" fill="black"/>
</g>
<defs>
<clipPath id="clip0_3052_632">
<rect width="88.6749" height="93" fill="white" transform="translate(160.512)"/>
</clipPath>
</defs>
</svg>